<mxfile host="Electron" agent="Mozilla/5.0 (X11; Linux x86_64) AppleWebKit/537.36 (KHTML, like Gecko) draw.io/24.7.5 Chrome/126.0.6478.183 Electron/31.3.0 Safari/537.36" version="24.7.5">
  <diagram name="Page-1" id="YD4UdOr27y-NBHFN0ByS">
    <mxGraphModel dx="1221" dy="301" grid="1" gridSize="10" guides="1" tooltips="1" connect="1" arrows="1" fold="1" page="1" pageScale="1" pageWidth="850" pageHeight="1100" math="0" shadow="0">
      <root>
        <mxCell id="0" />
        <mxCell id="1" parent="0" />
        <mxCell id="elTZjFrcNAr7ZUx7Urip-50" value="&lt;b&gt;Candidate&lt;/b&gt;" style="rounded=1;arcSize=10;whiteSpace=wrap;html=1;align=center;strokeWidth=2;" parent="1" vertex="1">
          <mxGeometry x="222.5" y="443" width="100" height="40" as="geometry" />
        </mxCell>
        <mxCell id="elTZjFrcNAr7ZUx7Urip-51" value="&lt;b&gt;Employer&lt;/b&gt;" style="rounded=1;arcSize=10;whiteSpace=wrap;html=1;align=center;strokeWidth=2;" parent="1" vertex="1">
          <mxGeometry x="382.5" y="443" width="100" height="40" as="geometry" />
        </mxCell>
        <mxCell id="elTZjFrcNAr7ZUx7Urip-54" value="" style="verticalAlign=bottom;html=1;ellipse;fillColor=strokeColor;fontFamily=Helvetica;fontSize=11;fontColor=default;" parent="1" vertex="1">
          <mxGeometry x="350.5" y="336" width="4" height="4" as="geometry" />
        </mxCell>
        <mxCell id="elTZjFrcNAr7ZUx7Urip-55" value="" style="edgeStyle=elbowEdgeStyle;html=1;endSize=12;endArrow=block;endFill=0;elbow=horizontal;rounded=0;labelBackgroundColor=default;fontFamily=Helvetica;fontSize=11;fontColor=default;shape=connector;entryX=0.5;entryY=1;entryDx=0;entryDy=0;exitX=1;exitY=1;exitDx=0;exitDy=0;" parent="1" edge="1" source="elTZjFrcNAr7ZUx7Urip-54">
          <mxGeometry x="1" relative="1" as="geometry">
            <mxPoint x="352.5" y="278" as="targetPoint" />
            <mxPoint x="352.5" y="326" as="sourcePoint" />
          </mxGeometry>
        </mxCell>
        <mxCell id="elTZjFrcNAr7ZUx7Urip-56" value="" style="edgeStyle=elbowEdgeStyle;html=1;elbow=vertical;verticalAlign=bottom;endArrow=none;rounded=0;labelBackgroundColor=default;fontFamily=Helvetica;fontSize=11;fontColor=default;startSize=14;shape=connector;entryX=0.5;entryY=0;entryDx=0;entryDy=0;exitX=0.5;exitY=1;exitDx=0;exitDy=0;" parent="1" target="elTZjFrcNAr7ZUx7Urip-51" edge="1" source="elTZjFrcNAr7ZUx7Urip-54">
          <mxGeometry x="1" relative="1" as="geometry">
            <mxPoint x="422.5" y="353" as="targetPoint" />
            <Array as="points">
              <mxPoint x="430" y="340" />
            </Array>
            <mxPoint x="354.5" y="328" as="sourcePoint" />
          </mxGeometry>
        </mxCell>
        <mxCell id="elTZjFrcNAr7ZUx7Urip-57" value="" style="edgeStyle=elbowEdgeStyle;html=1;elbow=vertical;verticalAlign=bottom;endArrow=none;rounded=0;labelBackgroundColor=default;fontFamily=Helvetica;fontSize=11;fontColor=default;startSize=14;shape=connector;entryX=0.5;entryY=0;entryDx=0;entryDy=0;exitX=0;exitY=1;exitDx=0;exitDy=0;" parent="1" target="elTZjFrcNAr7ZUx7Urip-50" edge="1" source="elTZjFrcNAr7ZUx7Urip-54">
          <mxGeometry x="1" relative="1" as="geometry">
            <mxPoint x="282.5" y="353" as="targetPoint" />
            <Array as="points">
              <mxPoint x="273" y="340" />
            </Array>
            <mxPoint x="350.5" y="328" as="sourcePoint" />
          </mxGeometry>
        </mxCell>
        <mxCell id="elTZjFrcNAr7ZUx7Urip-62" value="" style="endArrow=none;html=1;rounded=0;entryX=0.75;entryY=1;entryDx=0;entryDy=0;exitX=0.5;exitY=0;exitDx=0;exitDy=0;" parent="1" source="CkRIOsrcOfZO_O2mwUMa-96" target="elTZjFrcNAr7ZUx7Urip-50" edge="1">
          <mxGeometry width="50" height="50" relative="1" as="geometry">
            <mxPoint x="90" y="677" as="sourcePoint" />
            <mxPoint x="200" y="717" as="targetPoint" />
          </mxGeometry>
        </mxCell>
        <mxCell id="elTZjFrcNAr7ZUx7Urip-63" value="" style="endArrow=none;html=1;rounded=0;entryX=0.5;entryY=1;entryDx=0;entryDy=0;exitX=0;exitY=0.5;exitDx=0;exitDy=0;" parent="1" source="elTZjFrcNAr7ZUx7Urip-80" target="elTZjFrcNAr7ZUx7Urip-82" edge="1">
          <mxGeometry width="50" height="50" relative="1" as="geometry">
            <mxPoint x="120" y="777" as="sourcePoint" />
            <mxPoint x="90" y="737" as="targetPoint" />
            <Array as="points">
              <mxPoint x="290" y="690" />
            </Array>
          </mxGeometry>
        </mxCell>
        <mxCell id="elTZjFrcNAr7ZUx7Urip-65" value="" style="endArrow=none;html=1;rounded=0;entryX=0.75;entryY=1;entryDx=0;entryDy=0;exitX=0.25;exitY=0;exitDx=0;exitDy=0;" parent="1" target="elTZjFrcNAr7ZUx7Urip-51" edge="1" source="CkRIOsrcOfZO_O2mwUMa-98">
          <mxGeometry width="50" height="50" relative="1" as="geometry">
            <mxPoint x="250" y="677" as="sourcePoint" />
            <mxPoint x="310" y="687" as="targetPoint" />
          </mxGeometry>
        </mxCell>
        <mxCell id="elTZjFrcNAr7ZUx7Urip-80" value="&lt;b&gt;Job&lt;/b&gt;" style="shape=ext;margin=3;double=1;whiteSpace=wrap;html=1;align=center;rounded=1;shadow=0;glass=0;strokeWidth=2;" parent="1" vertex="1">
          <mxGeometry x="312.5" y="670" width="100" height="40" as="geometry" />
        </mxCell>
        <mxCell id="elTZjFrcNAr7ZUx7Urip-82" value="Employment" style="shape=rhombus;double=1;perimeter=rhombusPerimeter;whiteSpace=wrap;html=1;align=center;" parent="1" vertex="1">
          <mxGeometry x="230.5" y="570" width="120" height="60" as="geometry" />
        </mxCell>
        <mxCell id="elTZjFrcNAr7ZUx7Urip-100" value="surname" style="ellipse;whiteSpace=wrap;html=1;align=center;" parent="1" vertex="1">
          <mxGeometry x="65" y="470" width="100" height="40" as="geometry" />
        </mxCell>
        <mxCell id="elTZjFrcNAr7ZUx7Urip-101" value="" style="endArrow=none;html=1;rounded=0;exitX=1;exitY=0;exitDx=0;exitDy=0;entryX=0;entryY=0.75;entryDx=0;entryDy=0;" parent="1" source="elTZjFrcNAr7ZUx7Urip-100" target="elTZjFrcNAr7ZUx7Urip-50" edge="1">
          <mxGeometry width="50" height="50" relative="1" as="geometry">
            <mxPoint x="170" y="600" as="sourcePoint" />
            <mxPoint x="220" y="550" as="targetPoint" />
          </mxGeometry>
        </mxCell>
        <mxCell id="elTZjFrcNAr7ZUx7Urip-102" value="age" style="ellipse;whiteSpace=wrap;html=1;align=center;" parent="1" vertex="1">
          <mxGeometry x="160" y="396" width="100" height="40" as="geometry" />
        </mxCell>
        <mxCell id="elTZjFrcNAr7ZUx7Urip-103" value="" style="endArrow=none;html=1;rounded=0;exitX=0.5;exitY=1;exitDx=0;exitDy=0;entryX=0;entryY=0;entryDx=0;entryDy=0;" parent="1" source="elTZjFrcNAr7ZUx7Urip-102" target="elTZjFrcNAr7ZUx7Urip-50" edge="1">
          <mxGeometry width="50" height="50" relative="1" as="geometry">
            <mxPoint x="160" y="680" as="sourcePoint" />
            <mxPoint x="210" y="630" as="targetPoint" />
            <Array as="points" />
          </mxGeometry>
        </mxCell>
        <mxCell id="elTZjFrcNAr7ZUx7Urip-107" value="link" style="ellipse;shape=doubleEllipse;margin=3;whiteSpace=wrap;html=1;align=center;" parent="1" vertex="1">
          <mxGeometry x="440" y="238" width="100" height="40" as="geometry" />
        </mxCell>
        <mxCell id="elTZjFrcNAr7ZUx7Urip-108" value="" style="endArrow=none;html=1;rounded=0;exitX=1;exitY=0.5;exitDx=0;exitDy=0;entryX=0;entryY=0.5;entryDx=0;entryDy=0;" parent="1" source="CkRIOsrcOfZO_O2mwUMa-38" target="elTZjFrcNAr7ZUx7Urip-107" edge="1">
          <mxGeometry width="50" height="50" relative="1" as="geometry">
            <mxPoint x="470" y="308" as="sourcePoint" />
            <mxPoint x="507.5" y="308" as="targetPoint" />
            <Array as="points" />
          </mxGeometry>
        </mxCell>
        <mxCell id="elTZjFrcNAr7ZUx7Urip-110" value="address" style="ellipse;whiteSpace=wrap;html=1;align=center;" parent="1" vertex="1">
          <mxGeometry x="490" y="338" width="100" height="40" as="geometry" />
        </mxCell>
        <mxCell id="elTZjFrcNAr7ZUx7Urip-112" value="city" style="ellipse;whiteSpace=wrap;html=1;align=center;" parent="1" vertex="1">
          <mxGeometry x="580" y="378" width="100" height="40" as="geometry" />
        </mxCell>
        <mxCell id="elTZjFrcNAr7ZUx7Urip-113" value="country" style="ellipse;whiteSpace=wrap;html=1;align=center;" parent="1" vertex="1">
          <mxGeometry x="490" y="278" width="100" height="40" as="geometry" />
        </mxCell>
        <mxCell id="elTZjFrcNAr7ZUx7Urip-114" value="postal code" style="ellipse;whiteSpace=wrap;html=1;align=center;" parent="1" vertex="1">
          <mxGeometry x="490" y="398" width="100" height="40" as="geometry" />
        </mxCell>
        <mxCell id="elTZjFrcNAr7ZUx7Urip-117" value="" style="endArrow=none;html=1;rounded=0;exitX=0.5;exitY=1;exitDx=0;exitDy=0;entryX=0.5;entryY=0;entryDx=0;entryDy=0;" parent="1" source="elTZjFrcNAr7ZUx7Urip-113" target="elTZjFrcNAr7ZUx7Urip-110" edge="1">
          <mxGeometry width="50" height="50" relative="1" as="geometry">
            <mxPoint x="645" y="513" as="sourcePoint" />
            <mxPoint x="695" y="463" as="targetPoint" />
          </mxGeometry>
        </mxCell>
        <mxCell id="elTZjFrcNAr7ZUx7Urip-118" value="" style="endArrow=none;html=1;rounded=0;exitX=0;exitY=0;exitDx=0;exitDy=0;entryX=1;entryY=1;entryDx=0;entryDy=0;" parent="1" source="elTZjFrcNAr7ZUx7Urip-112" target="elTZjFrcNAr7ZUx7Urip-110" edge="1">
          <mxGeometry width="50" height="50" relative="1" as="geometry">
            <mxPoint x="645" y="513" as="sourcePoint" />
            <mxPoint x="695" y="463" as="targetPoint" />
            <Array as="points" />
          </mxGeometry>
        </mxCell>
        <mxCell id="elTZjFrcNAr7ZUx7Urip-119" value="" style="endArrow=none;html=1;rounded=0;exitX=0.5;exitY=0;exitDx=0;exitDy=0;entryX=0.5;entryY=1;entryDx=0;entryDy=0;" parent="1" source="elTZjFrcNAr7ZUx7Urip-114" target="elTZjFrcNAr7ZUx7Urip-110" edge="1">
          <mxGeometry width="50" height="50" relative="1" as="geometry">
            <mxPoint x="645" y="513" as="sourcePoint" />
            <mxPoint x="695" y="463" as="targetPoint" />
            <Array as="points" />
          </mxGeometry>
        </mxCell>
        <mxCell id="elTZjFrcNAr7ZUx7Urip-120" value="image" style="ellipse;shape=doubleEllipse;margin=3;whiteSpace=wrap;html=1;align=center;" parent="1" vertex="1">
          <mxGeometry x="425" y="180" width="100" height="40" as="geometry" />
        </mxCell>
        <mxCell id="elTZjFrcNAr7ZUx7Urip-121" value="" style="endArrow=none;html=1;rounded=0;exitX=1;exitY=0;exitDx=0;exitDy=0;entryX=0;entryY=1;entryDx=0;entryDy=0;" parent="1" source="CkRIOsrcOfZO_O2mwUMa-38" target="elTZjFrcNAr7ZUx7Urip-120" edge="1">
          <mxGeometry width="50" height="50" relative="1" as="geometry">
            <mxPoint x="90" y="580" as="sourcePoint" />
            <mxPoint x="450" y="220" as="targetPoint" />
            <Array as="points" />
          </mxGeometry>
        </mxCell>
        <mxCell id="elTZjFrcNAr7ZUx7Urip-123" value="civic" style="ellipse;whiteSpace=wrap;html=1;align=center;" parent="1" vertex="1">
          <mxGeometry x="580" y="298" width="100" height="40" as="geometry" />
        </mxCell>
        <mxCell id="elTZjFrcNAr7ZUx7Urip-124" value="" style="endArrow=none;html=1;rounded=0;exitX=1;exitY=0;exitDx=0;exitDy=0;entryX=0;entryY=1;entryDx=0;entryDy=0;" parent="1" source="elTZjFrcNAr7ZUx7Urip-110" target="elTZjFrcNAr7ZUx7Urip-123" edge="1">
          <mxGeometry width="50" height="50" relative="1" as="geometry">
            <mxPoint x="675" y="503" as="sourcePoint" />
            <mxPoint x="725" y="453" as="targetPoint" />
            <Array as="points" />
          </mxGeometry>
        </mxCell>
        <mxCell id="elTZjFrcNAr7ZUx7Urip-125" value="street" style="ellipse;whiteSpace=wrap;html=1;align=center;" parent="1" vertex="1">
          <mxGeometry x="617.5" y="338" width="100" height="40" as="geometry" />
        </mxCell>
        <mxCell id="elTZjFrcNAr7ZUx7Urip-126" value="" style="endArrow=none;html=1;rounded=0;exitX=0;exitY=0.5;exitDx=0;exitDy=0;entryX=1;entryY=0.5;entryDx=0;entryDy=0;" parent="1" source="elTZjFrcNAr7ZUx7Urip-125" target="elTZjFrcNAr7ZUx7Urip-110" edge="1">
          <mxGeometry width="50" height="50" relative="1" as="geometry">
            <mxPoint x="675" y="503" as="sourcePoint" />
            <mxPoint x="725" y="453" as="targetPoint" />
            <Array as="points" />
          </mxGeometry>
        </mxCell>
        <mxCell id="RUPjmpTVuGnKyJf_UnIQ-4" value="skill" style="ellipse;shape=doubleEllipse;margin=3;whiteSpace=wrap;html=1;align=center;" parent="1" vertex="1">
          <mxGeometry x="-70" y="443" width="100" height="40" as="geometry" />
        </mxCell>
        <mxCell id="RUPjmpTVuGnKyJf_UnIQ-5" value="name" style="ellipse;whiteSpace=wrap;html=1;align=center;" parent="1" vertex="1">
          <mxGeometry x="-180" y="443" width="100" height="40" as="geometry" />
        </mxCell>
        <mxCell id="RUPjmpTVuGnKyJf_UnIQ-6" value="level" style="ellipse;whiteSpace=wrap;html=1;align=center;" parent="1" vertex="1">
          <mxGeometry x="-70" y="490" width="100" height="40" as="geometry" />
        </mxCell>
        <mxCell id="RUPjmpTVuGnKyJf_UnIQ-7" value="" style="endArrow=none;html=1;rounded=0;entryX=1;entryY=0.5;entryDx=0;entryDy=0;exitX=0;exitY=0.5;exitDx=0;exitDy=0;" parent="1" source="RUPjmpTVuGnKyJf_UnIQ-4" target="RUPjmpTVuGnKyJf_UnIQ-5" edge="1">
          <mxGeometry relative="1" as="geometry">
            <mxPoint x="-20" y="433" as="sourcePoint" />
            <mxPoint x="140" y="433" as="targetPoint" />
            <Array as="points" />
          </mxGeometry>
        </mxCell>
        <mxCell id="RUPjmpTVuGnKyJf_UnIQ-8" value="" style="endArrow=none;html=1;rounded=0;exitX=0.5;exitY=0;exitDx=0;exitDy=0;entryX=0.5;entryY=1;entryDx=0;entryDy=0;" parent="1" source="RUPjmpTVuGnKyJf_UnIQ-6" target="RUPjmpTVuGnKyJf_UnIQ-4" edge="1">
          <mxGeometry relative="1" as="geometry">
            <mxPoint x="-20" y="433" as="sourcePoint" />
            <mxPoint x="140" y="433" as="targetPoint" />
            <Array as="points" />
          </mxGeometry>
        </mxCell>
        <mxCell id="RUPjmpTVuGnKyJf_UnIQ-9" value="" style="endArrow=none;html=1;rounded=0;exitX=0.5;exitY=0;exitDx=0;exitDy=0;entryX=0.5;entryY=1;entryDx=0;entryDy=0;" parent="1" source="RUPjmpTVuGnKyJf_UnIQ-4" target="RUPjmpTVuGnKyJf_UnIQ-10" edge="1">
          <mxGeometry relative="1" as="geometry">
            <mxPoint x="60" y="573" as="sourcePoint" />
            <mxPoint x="220" y="573" as="targetPoint" />
          </mxGeometry>
        </mxCell>
        <mxCell id="RUPjmpTVuGnKyJf_UnIQ-10" value="description" style="ellipse;whiteSpace=wrap;html=1;align=center;" parent="1" vertex="1">
          <mxGeometry x="-70" y="396" width="100" height="40" as="geometry" />
        </mxCell>
        <mxCell id="RUPjmpTVuGnKyJf_UnIQ-11" value="" style="endArrow=none;html=1;rounded=0;entryX=0;entryY=0.5;entryDx=0;entryDy=0;exitX=1;exitY=0.5;exitDx=0;exitDy=0;" parent="1" source="RUPjmpTVuGnKyJf_UnIQ-4" target="elTZjFrcNAr7ZUx7Urip-50" edge="1">
          <mxGeometry width="50" height="50" relative="1" as="geometry">
            <mxPoint x="10" y="700" as="sourcePoint" />
            <mxPoint x="60" y="650" as="targetPoint" />
            <Array as="points" />
          </mxGeometry>
        </mxCell>
        <mxCell id="RUPjmpTVuGnKyJf_UnIQ-12" value="Application" style="shape=rhombus;perimeter=rhombusPerimeter;whiteSpace=wrap;html=1;align=center;" parent="1" vertex="1">
          <mxGeometry x="45" y="530" width="120" height="60" as="geometry" />
        </mxCell>
        <mxCell id="RUPjmpTVuGnKyJf_UnIQ-13" value="" style="endArrow=none;html=1;rounded=0;exitX=0.25;exitY=1;exitDx=0;exitDy=0;entryX=1;entryY=0;entryDx=0;entryDy=0;" parent="1" source="CkRIOsrcOfZO_O2mwUMa-94" target="RUPjmpTVuGnKyJf_UnIQ-12" edge="1">
          <mxGeometry width="50" height="50" relative="1" as="geometry">
            <mxPoint x="90" y="780" as="sourcePoint" />
            <mxPoint x="140" y="730" as="targetPoint" />
            <Array as="points" />
          </mxGeometry>
        </mxCell>
        <mxCell id="RUPjmpTVuGnKyJf_UnIQ-14" value="" style="endArrow=none;html=1;rounded=0;exitX=0.5;exitY=1;exitDx=0;exitDy=0;entryX=0;entryY=0.5;entryDx=0;entryDy=0;" parent="1" source="RUPjmpTVuGnKyJf_UnIQ-12" target="CkRIOsrcOfZO_O2mwUMa-87" edge="1">
          <mxGeometry width="50" height="50" relative="1" as="geometry">
            <mxPoint x="50" y="780" as="sourcePoint" />
            <mxPoint x="100" y="730" as="targetPoint" />
            <Array as="points">
              <mxPoint x="105" y="740" />
            </Array>
          </mxGeometry>
        </mxCell>
        <mxCell id="RUPjmpTVuGnKyJf_UnIQ-19" value="date" style="ellipse;whiteSpace=wrap;html=1;align=center;" parent="1" vertex="1">
          <mxGeometry x="-60" y="540" width="100" height="40" as="geometry" />
        </mxCell>
        <mxCell id="RUPjmpTVuGnKyJf_UnIQ-20" value="" style="endArrow=none;html=1;rounded=0;entryX=1;entryY=0.5;entryDx=0;entryDy=0;exitX=0;exitY=0.5;exitDx=0;exitDy=0;" parent="1" source="RUPjmpTVuGnKyJf_UnIQ-12" target="RUPjmpTVuGnKyJf_UnIQ-19" edge="1">
          <mxGeometry width="50" height="50" relative="1" as="geometry">
            <mxPoint x="230" y="613" as="sourcePoint" />
            <mxPoint x="280" y="563" as="targetPoint" />
          </mxGeometry>
        </mxCell>
        <mxCell id="RUPjmpTVuGnKyJf_UnIQ-21" value="period" style="ellipse;whiteSpace=wrap;html=1;align=center;" parent="1" vertex="1">
          <mxGeometry x="122.5" y="580" width="100" height="40" as="geometry" />
        </mxCell>
        <mxCell id="RUPjmpTVuGnKyJf_UnIQ-23" value="" style="endArrow=none;html=1;rounded=0;entryX=1;entryY=0.5;entryDx=0;entryDy=0;exitX=0;exitY=0.5;exitDx=0;exitDy=0;" parent="1" source="elTZjFrcNAr7ZUx7Urip-82" target="RUPjmpTVuGnKyJf_UnIQ-21" edge="1">
          <mxGeometry width="50" height="50" relative="1" as="geometry">
            <mxPoint x="110" y="800" as="sourcePoint" />
            <mxPoint x="160" y="750" as="targetPoint" />
            <Array as="points" />
          </mxGeometry>
        </mxCell>
        <mxCell id="CkRIOsrcOfZO_O2mwUMa-1" value="&lt;b&gt;User&lt;/b&gt;" style="rounded=1;arcSize=10;whiteSpace=wrap;html=1;align=center;strokeWidth=2;" vertex="1" parent="1">
          <mxGeometry x="112.5" y="95" width="100" height="40" as="geometry" />
        </mxCell>
        <mxCell id="CkRIOsrcOfZO_O2mwUMa-2" value="username" style="ellipse;whiteSpace=wrap;html=1;align=center;fontStyle=4;strokeWidth=1;" vertex="1" parent="1">
          <mxGeometry x="112.5" y="40" width="100" height="40" as="geometry" />
        </mxCell>
        <mxCell id="CkRIOsrcOfZO_O2mwUMa-3" value="email" style="ellipse;whiteSpace=wrap;html=1;align=center;" vertex="1" parent="1">
          <mxGeometry x="2.5" y="95" width="100" height="40" as="geometry" />
        </mxCell>
        <mxCell id="CkRIOsrcOfZO_O2mwUMa-4" value="&lt;b&gt;Service&lt;/b&gt;" style="rounded=1;arcSize=10;whiteSpace=wrap;html=1;align=center;strokeWidth=2;" vertex="1" parent="1">
          <mxGeometry x="-250" y="95" width="100" height="40" as="geometry" />
        </mxCell>
        <mxCell id="CkRIOsrcOfZO_O2mwUMa-5" value="name" style="ellipse;whiteSpace=wrap;html=1;align=center;fontStyle=4;strokeWidth=1;" vertex="1" parent="1">
          <mxGeometry x="-250" y="40" width="100" height="40" as="geometry" />
        </mxCell>
        <mxCell id="CkRIOsrcOfZO_O2mwUMa-6" value="description" style="ellipse;whiteSpace=wrap;html=1;align=center;" vertex="1" parent="1">
          <mxGeometry x="-360" y="95" width="100" height="40" as="geometry" />
        </mxCell>
        <mxCell id="CkRIOsrcOfZO_O2mwUMa-7" value="script" style="ellipse;whiteSpace=wrap;html=1;align=center;" vertex="1" parent="1">
          <mxGeometry x="-140" y="95" width="100" height="40" as="geometry" />
        </mxCell>
        <mxCell id="CkRIOsrcOfZO_O2mwUMa-8" value="&lt;b&gt;Role&lt;/b&gt;" style="rounded=1;arcSize=10;whiteSpace=wrap;html=1;align=center;strokeWidth=2;" vertex="1" parent="1">
          <mxGeometry x="-70" y="190" width="100" height="40" as="geometry" />
        </mxCell>
        <mxCell id="CkRIOsrcOfZO_O2mwUMa-9" value="name" style="ellipse;whiteSpace=wrap;html=1;align=center;fontStyle=4;strokeWidth=1;" vertex="1" parent="1">
          <mxGeometry x="-70" y="140" width="100" height="40" as="geometry" />
        </mxCell>
        <mxCell id="CkRIOsrcOfZO_O2mwUMa-10" value="description" style="ellipse;whiteSpace=wrap;html=1;align=center;" vertex="1" parent="1">
          <mxGeometry x="-70" y="240" width="100" height="40" as="geometry" />
        </mxCell>
        <mxCell id="CkRIOsrcOfZO_O2mwUMa-11" value="" style="endArrow=none;html=1;rounded=0;exitX=0.5;exitY=1;exitDx=0;exitDy=0;entryX=0.5;entryY=0;entryDx=0;entryDy=0;" edge="1" parent="1" source="CkRIOsrcOfZO_O2mwUMa-2" target="CkRIOsrcOfZO_O2mwUMa-1">
          <mxGeometry width="50" height="50" relative="1" as="geometry">
            <mxPoint x="330" y="320" as="sourcePoint" />
            <mxPoint x="380" y="270" as="targetPoint" />
          </mxGeometry>
        </mxCell>
        <mxCell id="CkRIOsrcOfZO_O2mwUMa-12" value="" style="endArrow=none;html=1;rounded=0;exitX=1;exitY=0.5;exitDx=0;exitDy=0;entryX=0;entryY=0.5;entryDx=0;entryDy=0;" edge="1" parent="1" source="CkRIOsrcOfZO_O2mwUMa-3" target="CkRIOsrcOfZO_O2mwUMa-1">
          <mxGeometry width="50" height="50" relative="1" as="geometry">
            <mxPoint x="330" y="320" as="sourcePoint" />
            <mxPoint x="380" y="270" as="targetPoint" />
          </mxGeometry>
        </mxCell>
        <mxCell id="CkRIOsrcOfZO_O2mwUMa-13" value="" style="endArrow=none;html=1;rounded=0;exitX=1;exitY=0.5;exitDx=0;exitDy=0;entryX=0;entryY=0.5;entryDx=0;entryDy=0;" edge="1" parent="1" source="CkRIOsrcOfZO_O2mwUMa-6" target="CkRIOsrcOfZO_O2mwUMa-4">
          <mxGeometry width="50" height="50" relative="1" as="geometry">
            <mxPoint x="-90" y="230" as="sourcePoint" />
            <mxPoint x="-40" y="180" as="targetPoint" />
          </mxGeometry>
        </mxCell>
        <mxCell id="CkRIOsrcOfZO_O2mwUMa-14" value="" style="endArrow=none;html=1;rounded=0;exitX=0.5;exitY=1;exitDx=0;exitDy=0;entryX=0.5;entryY=0;entryDx=0;entryDy=0;" edge="1" parent="1" source="CkRIOsrcOfZO_O2mwUMa-5" target="CkRIOsrcOfZO_O2mwUMa-4">
          <mxGeometry width="50" height="50" relative="1" as="geometry">
            <mxPoint x="-90" y="230" as="sourcePoint" />
            <mxPoint x="-40" y="180" as="targetPoint" />
          </mxGeometry>
        </mxCell>
        <mxCell id="CkRIOsrcOfZO_O2mwUMa-15" value="" style="endArrow=none;html=1;rounded=0;exitX=1;exitY=0.5;exitDx=0;exitDy=0;entryX=0;entryY=0.5;entryDx=0;entryDy=0;" edge="1" parent="1" source="CkRIOsrcOfZO_O2mwUMa-4" target="CkRIOsrcOfZO_O2mwUMa-7">
          <mxGeometry width="50" height="50" relative="1" as="geometry">
            <mxPoint x="-90" y="230" as="sourcePoint" />
            <mxPoint x="-40" y="180" as="targetPoint" />
          </mxGeometry>
        </mxCell>
        <mxCell id="CkRIOsrcOfZO_O2mwUMa-16" value="" style="endArrow=none;html=1;rounded=0;exitX=0.5;exitY=1;exitDx=0;exitDy=0;entryX=0.5;entryY=0;entryDx=0;entryDy=0;" edge="1" parent="1" source="CkRIOsrcOfZO_O2mwUMa-9" target="CkRIOsrcOfZO_O2mwUMa-8">
          <mxGeometry width="50" height="50" relative="1" as="geometry">
            <mxPoint x="-40" y="280" as="sourcePoint" />
            <mxPoint x="10" y="230" as="targetPoint" />
          </mxGeometry>
        </mxCell>
        <mxCell id="CkRIOsrcOfZO_O2mwUMa-17" value="" style="endArrow=none;html=1;rounded=0;exitX=0;exitY=0.5;exitDx=0;exitDy=0;entryX=1;entryY=0.5;entryDx=0;entryDy=0;" edge="1" parent="1" source="CkRIOsrcOfZO_O2mwUMa-30" target="CkRIOsrcOfZO_O2mwUMa-8">
          <mxGeometry width="50" height="50" relative="1" as="geometry">
            <mxPoint x="370" y="350" as="sourcePoint" />
            <mxPoint x="500" y="300" as="targetPoint" />
            <Array as="points" />
          </mxGeometry>
        </mxCell>
        <mxCell id="CkRIOsrcOfZO_O2mwUMa-18" value="" style="endArrow=none;html=1;rounded=0;entryX=0;entryY=0.5;entryDx=0;entryDy=0;exitX=1;exitY=0.5;exitDx=0;exitDy=0;" edge="1" parent="1" source="CkRIOsrcOfZO_O2mwUMa-28" target="CkRIOsrcOfZO_O2mwUMa-8">
          <mxGeometry width="50" height="50" relative="1" as="geometry">
            <mxPoint x="177" y="130" as="sourcePoint" />
            <mxPoint x="297" y="160" as="targetPoint" />
          </mxGeometry>
        </mxCell>
        <mxCell id="CkRIOsrcOfZO_O2mwUMa-19" value="User role" style="shape=rhombus;perimeter=rhombusPerimeter;whiteSpace=wrap;html=1;align=center;" vertex="1" parent="1">
          <mxGeometry x="102.5" y="180" width="120" height="60" as="geometry" />
        </mxCell>
        <mxCell id="CkRIOsrcOfZO_O2mwUMa-20" value="" style="endArrow=none;html=1;rounded=0;exitX=0.5;exitY=1;exitDx=0;exitDy=0;entryX=0.5;entryY=0;entryDx=0;entryDy=0;" edge="1" parent="1" source="CkRIOsrcOfZO_O2mwUMa-1" target="CkRIOsrcOfZO_O2mwUMa-19">
          <mxGeometry width="50" height="50" relative="1" as="geometry">
            <mxPoint x="450" y="260" as="sourcePoint" />
            <mxPoint x="520" y="245" as="targetPoint" />
            <Array as="points" />
          </mxGeometry>
        </mxCell>
        <mxCell id="CkRIOsrcOfZO_O2mwUMa-21" value="Role service" style="shape=rhombus;perimeter=rhombusPerimeter;whiteSpace=wrap;html=1;align=center;" vertex="1" parent="1">
          <mxGeometry x="-260" y="180" width="120" height="60" as="geometry" />
        </mxCell>
        <mxCell id="CkRIOsrcOfZO_O2mwUMa-22" value="" style="endArrow=none;html=1;rounded=0;exitX=0.5;exitY=1;exitDx=0;exitDy=0;entryX=0.5;entryY=0;entryDx=0;entryDy=0;" edge="1" parent="1" source="CkRIOsrcOfZO_O2mwUMa-26" target="CkRIOsrcOfZO_O2mwUMa-21">
          <mxGeometry width="50" height="50" relative="1" as="geometry">
            <mxPoint x="70" y="205" as="sourcePoint" />
            <mxPoint x="-200" y="180" as="targetPoint" />
          </mxGeometry>
        </mxCell>
        <mxCell id="CkRIOsrcOfZO_O2mwUMa-23" value="" style="endArrow=none;html=1;rounded=0;exitX=0.5;exitY=1;exitDx=0;exitDy=0;entryX=0.5;entryY=0;entryDx=0;entryDy=0;" edge="1" parent="1" source="CkRIOsrcOfZO_O2mwUMa-8" target="CkRIOsrcOfZO_O2mwUMa-10">
          <mxGeometry width="50" height="50" relative="1" as="geometry">
            <mxPoint x="-260" y="270" as="sourcePoint" />
            <mxPoint x="-210" y="220" as="targetPoint" />
          </mxGeometry>
        </mxCell>
        <mxCell id="CkRIOsrcOfZO_O2mwUMa-24" value="" style="endArrow=none;html=1;rounded=0;entryX=1;entryY=0.5;entryDx=0;entryDy=0;exitX=0;exitY=0.5;exitDx=0;exitDy=0;" edge="1" parent="1" source="CkRIOsrcOfZO_O2mwUMa-31" target="CkRIOsrcOfZO_O2mwUMa-1">
          <mxGeometry width="50" height="50" relative="1" as="geometry">
            <mxPoint x="220" y="460" as="sourcePoint" />
            <mxPoint x="270" y="410" as="targetPoint" />
          </mxGeometry>
        </mxCell>
        <mxCell id="CkRIOsrcOfZO_O2mwUMa-25" value="" style="endArrow=none;html=1;rounded=0;exitX=0.5;exitY=1;exitDx=0;exitDy=0;entryX=0.5;entryY=0;entryDx=0;entryDy=0;" edge="1" parent="1" source="CkRIOsrcOfZO_O2mwUMa-4" target="CkRIOsrcOfZO_O2mwUMa-26">
          <mxGeometry width="50" height="50" relative="1" as="geometry">
            <mxPoint x="-200" y="135" as="sourcePoint" />
            <mxPoint x="-200" y="180" as="targetPoint" />
          </mxGeometry>
        </mxCell>
        <mxCell id="CkRIOsrcOfZO_O2mwUMa-26" value="(1,n)" style="text;html=1;align=center;verticalAlign=middle;whiteSpace=wrap;rounded=0;" vertex="1" parent="1">
          <mxGeometry x="-215" y="140" width="30" height="20" as="geometry" />
        </mxCell>
        <mxCell id="CkRIOsrcOfZO_O2mwUMa-27" value="" style="endArrow=none;html=1;rounded=0;entryX=0;entryY=0.5;entryDx=0;entryDy=0;exitX=1;exitY=0.5;exitDx=0;exitDy=0;" edge="1" parent="1" source="CkRIOsrcOfZO_O2mwUMa-21" target="CkRIOsrcOfZO_O2mwUMa-28">
          <mxGeometry width="50" height="50" relative="1" as="geometry">
            <mxPoint x="-140" y="210" as="sourcePoint" />
            <mxPoint x="-27" y="210" as="targetPoint" />
          </mxGeometry>
        </mxCell>
        <mxCell id="CkRIOsrcOfZO_O2mwUMa-28" value="(1,n)" style="text;html=1;align=center;verticalAlign=middle;whiteSpace=wrap;rounded=0;" vertex="1" parent="1">
          <mxGeometry x="-110" y="200" width="30" height="20" as="geometry" />
        </mxCell>
        <mxCell id="CkRIOsrcOfZO_O2mwUMa-29" value="" style="endArrow=none;html=1;rounded=0;exitX=0;exitY=0.5;exitDx=0;exitDy=0;entryX=1;entryY=0.5;entryDx=0;entryDy=0;" edge="1" parent="1" source="CkRIOsrcOfZO_O2mwUMa-19" target="CkRIOsrcOfZO_O2mwUMa-30">
          <mxGeometry width="50" height="50" relative="1" as="geometry">
            <mxPoint x="103" y="210" as="sourcePoint" />
            <mxPoint x="30" y="210" as="targetPoint" />
            <Array as="points" />
          </mxGeometry>
        </mxCell>
        <mxCell id="CkRIOsrcOfZO_O2mwUMa-30" value="(1,n)" style="text;html=1;align=center;verticalAlign=middle;whiteSpace=wrap;rounded=0;" vertex="1" parent="1">
          <mxGeometry x="40" y="200" width="30" height="20" as="geometry" />
        </mxCell>
        <mxCell id="CkRIOsrcOfZO_O2mwUMa-31" value="(0,1)" style="text;html=1;align=center;verticalAlign=middle;whiteSpace=wrap;rounded=0;" vertex="1" parent="1">
          <mxGeometry x="222.5" y="105" width="30" height="20" as="geometry" />
        </mxCell>
        <mxCell id="CkRIOsrcOfZO_O2mwUMa-32" value="User profile" style="shape=rhombus;perimeter=rhombusPerimeter;whiteSpace=wrap;html=1;align=center;" vertex="1" parent="1">
          <mxGeometry x="292.5" y="85" width="120" height="60" as="geometry" />
        </mxCell>
        <mxCell id="CkRIOsrcOfZO_O2mwUMa-33" value="" style="endArrow=none;html=1;rounded=0;entryX=1;entryY=0.5;entryDx=0;entryDy=0;exitX=0;exitY=0.5;exitDx=0;exitDy=0;" edge="1" parent="1">
          <mxGeometry width="50" height="50" relative="1" as="geometry">
            <mxPoint x="222.5" y="115" as="sourcePoint" />
            <mxPoint x="213" y="115" as="targetPoint" />
          </mxGeometry>
        </mxCell>
        <mxCell id="CkRIOsrcOfZO_O2mwUMa-34" value="" style="endArrow=none;html=1;rounded=0;entryX=0.5;entryY=1;entryDx=0;entryDy=0;exitX=0.5;exitY=0;exitDx=0;exitDy=0;" edge="1" parent="1" source="CkRIOsrcOfZO_O2mwUMa-37" target="CkRIOsrcOfZO_O2mwUMa-32">
          <mxGeometry width="50" height="50" relative="1" as="geometry">
            <mxPoint x="220" y="460" as="sourcePoint" />
            <mxPoint x="270" y="410" as="targetPoint" />
          </mxGeometry>
        </mxCell>
        <mxCell id="CkRIOsrcOfZO_O2mwUMa-35" value="" style="endArrow=none;html=1;rounded=0;entryX=1;entryY=0.5;entryDx=0;entryDy=0;exitX=0;exitY=0.5;exitDx=0;exitDy=0;" edge="1" parent="1" source="CkRIOsrcOfZO_O2mwUMa-32">
          <mxGeometry width="50" height="50" relative="1" as="geometry">
            <mxPoint x="293" y="115" as="sourcePoint" />
            <mxPoint x="252.5" y="115" as="targetPoint" />
          </mxGeometry>
        </mxCell>
        <mxCell id="CkRIOsrcOfZO_O2mwUMa-37" value="(1,1)" style="text;html=1;align=center;verticalAlign=middle;whiteSpace=wrap;rounded=0;" vertex="1" parent="1">
          <mxGeometry x="337" y="207" width="31" height="20" as="geometry" />
        </mxCell>
        <mxCell id="CkRIOsrcOfZO_O2mwUMa-38" value="&lt;b&gt;Profile&lt;/b&gt;" style="rounded=1;arcSize=10;whiteSpace=wrap;html=1;align=center;strokeWidth=2;" vertex="1" parent="1">
          <mxGeometry x="302.5" y="238" width="100" height="40" as="geometry" />
        </mxCell>
        <mxCell id="CkRIOsrcOfZO_O2mwUMa-39" value="" style="endArrow=none;html=1;rounded=0;entryX=0;entryY=0;entryDx=0;entryDy=0;exitX=0.5;exitY=1;exitDx=0;exitDy=0;" edge="1" parent="1" target="CkRIOsrcOfZO_O2mwUMa-38" source="CkRIOsrcOfZO_O2mwUMa-43">
          <mxGeometry width="50" height="50" relative="1" as="geometry">
            <mxPoint x="290" y="240" as="sourcePoint" />
            <mxPoint x="260" y="464" as="targetPoint" />
          </mxGeometry>
        </mxCell>
        <mxCell id="CkRIOsrcOfZO_O2mwUMa-41" value="" style="endArrow=none;html=1;rounded=0;entryX=0;entryY=0.5;entryDx=0;entryDy=0;exitX=1;exitY=0.5;exitDx=0;exitDy=0;" edge="1" parent="1" target="CkRIOsrcOfZO_O2mwUMa-38" source="CkRIOsrcOfZO_O2mwUMa-44">
          <mxGeometry width="50" height="50" relative="1" as="geometry">
            <mxPoint x="290" y="283" as="sourcePoint" />
            <mxPoint x="320" y="240" as="targetPoint" />
          </mxGeometry>
        </mxCell>
        <mxCell id="CkRIOsrcOfZO_O2mwUMa-43" value="description" style="ellipse;whiteSpace=wrap;html=1;align=center;" vertex="1" parent="1">
          <mxGeometry x="222.5" y="180" width="100" height="40" as="geometry" />
        </mxCell>
        <mxCell id="CkRIOsrcOfZO_O2mwUMa-44" value="phone number" style="ellipse;whiteSpace=wrap;html=1;align=center;" vertex="1" parent="1">
          <mxGeometry x="190" y="238" width="100" height="40" as="geometry" />
        </mxCell>
        <mxCell id="CkRIOsrcOfZO_O2mwUMa-46" value="" style="endArrow=none;html=1;rounded=0;entryX=1;entryY=1;entryDx=0;entryDy=0;exitX=0;exitY=0;exitDx=0;exitDy=0;" edge="1" parent="1" source="elTZjFrcNAr7ZUx7Urip-110" target="CkRIOsrcOfZO_O2mwUMa-38">
          <mxGeometry width="50" height="50" relative="1" as="geometry">
            <mxPoint x="430.5" y="348" as="sourcePoint" />
            <mxPoint x="470" y="328" as="targetPoint" />
            <Array as="points" />
          </mxGeometry>
        </mxCell>
        <mxCell id="CkRIOsrcOfZO_O2mwUMa-47" value="" style="endArrow=none;html=1;rounded=0;entryX=0.5;entryY=1;entryDx=0;entryDy=0;exitX=0.5;exitY=0;exitDx=0;exitDy=0;" edge="1" parent="1">
          <mxGeometry width="50" height="50" relative="1" as="geometry">
            <mxPoint x="353" y="238" as="sourcePoint" />
            <mxPoint x="353" y="227" as="targetPoint" />
          </mxGeometry>
        </mxCell>
        <mxCell id="CkRIOsrcOfZO_O2mwUMa-49" value="name" style="ellipse;whiteSpace=wrap;html=1;align=center;" vertex="1" parent="1">
          <mxGeometry x="65" y="420" width="100" height="40" as="geometry" />
        </mxCell>
        <mxCell id="CkRIOsrcOfZO_O2mwUMa-52" value="" style="endArrow=none;html=1;rounded=0;exitX=1;exitY=0.5;exitDx=0;exitDy=0;entryX=0;entryY=0.25;entryDx=0;entryDy=0;" edge="1" parent="1" source="CkRIOsrcOfZO_O2mwUMa-49" target="elTZjFrcNAr7ZUx7Urip-50">
          <mxGeometry width="50" height="50" relative="1" as="geometry">
            <mxPoint x="248" y="440" as="sourcePoint" />
            <mxPoint x="258" y="453" as="targetPoint" />
            <Array as="points" />
          </mxGeometry>
        </mxCell>
        <mxCell id="CkRIOsrcOfZO_O2mwUMa-55" value="name" style="ellipse;whiteSpace=wrap;html=1;align=center;" vertex="1" parent="1">
          <mxGeometry x="500" y="443" width="100" height="40" as="geometry" />
        </mxCell>
        <mxCell id="CkRIOsrcOfZO_O2mwUMa-56" value="" style="endArrow=none;html=1;rounded=0;exitX=0;exitY=0.5;exitDx=0;exitDy=0;entryX=1;entryY=0.5;entryDx=0;entryDy=0;" edge="1" parent="1" source="CkRIOsrcOfZO_O2mwUMa-55" target="elTZjFrcNAr7ZUx7Urip-51">
          <mxGeometry width="50" height="50" relative="1" as="geometry">
            <mxPoint x="550" y="408" as="sourcePoint" />
            <mxPoint x="550" y="388" as="targetPoint" />
            <Array as="points" />
          </mxGeometry>
        </mxCell>
        <mxCell id="CkRIOsrcOfZO_O2mwUMa-60" value="quantity" style="ellipse;whiteSpace=wrap;html=1;align=center;" vertex="1" parent="1">
          <mxGeometry x="582.5" y="538" width="100" height="40" as="geometry" />
        </mxCell>
        <mxCell id="CkRIOsrcOfZO_O2mwUMa-61" value="" style="endArrow=none;html=1;rounded=0;entryX=1;entryY=0.5;entryDx=0;entryDy=0;exitX=0;exitY=0.5;exitDx=0;exitDy=0;" edge="1" parent="1" source="CkRIOsrcOfZO_O2mwUMa-60" target="CkRIOsrcOfZO_O2mwUMa-62">
          <mxGeometry width="50" height="50" relative="1" as="geometry">
            <mxPoint x="412.5" y="670" as="sourcePoint" />
            <mxPoint x="282.5" y="670" as="targetPoint" />
          </mxGeometry>
        </mxCell>
        <mxCell id="CkRIOsrcOfZO_O2mwUMa-62" value="Makes" style="shape=rhombus;double=1;perimeter=rhombusPerimeter;whiteSpace=wrap;html=1;align=center;" vertex="1" parent="1">
          <mxGeometry x="452.5" y="528" width="120" height="60" as="geometry" />
        </mxCell>
        <mxCell id="CkRIOsrcOfZO_O2mwUMa-64" value="" style="endArrow=none;html=1;rounded=0;entryX=0.5;entryY=0;entryDx=0;entryDy=0;exitX=0.5;exitY=1;exitDx=0;exitDy=0;" edge="1" parent="1" target="CkRIOsrcOfZO_O2mwUMa-81" source="CkRIOsrcOfZO_O2mwUMa-104">
          <mxGeometry width="50" height="50" relative="1" as="geometry">
            <mxPoint x="514.5" y="708" as="sourcePoint" />
            <mxPoint x="382" y="535" as="targetPoint" />
            <Array as="points" />
          </mxGeometry>
        </mxCell>
        <mxCell id="CkRIOsrcOfZO_O2mwUMa-65" value="description" style="ellipse;whiteSpace=wrap;html=1;align=center;" vertex="1" parent="1">
          <mxGeometry x="370" y="777" width="100" height="40" as="geometry" />
        </mxCell>
        <mxCell id="CkRIOsrcOfZO_O2mwUMa-66" value="salary" style="ellipse;whiteSpace=wrap;html=1;align=center;" vertex="1" parent="1">
          <mxGeometry x="552.5" y="777" width="100" height="40" as="geometry" />
        </mxCell>
        <mxCell id="CkRIOsrcOfZO_O2mwUMa-67" value="" style="endArrow=none;html=1;rounded=0;exitX=1;exitY=0.5;exitDx=0;exitDy=0;entryX=0.25;entryY=1;entryDx=0;entryDy=0;" edge="1" parent="1" source="CkRIOsrcOfZO_O2mwUMa-65" target="CkRIOsrcOfZO_O2mwUMa-81">
          <mxGeometry width="50" height="50" relative="1" as="geometry">
            <mxPoint x="390" y="707" as="sourcePoint" />
            <mxPoint x="305" y="727" as="targetPoint" />
            <Array as="points">
              <mxPoint x="487.5" y="797" />
            </Array>
          </mxGeometry>
        </mxCell>
        <mxCell id="CkRIOsrcOfZO_O2mwUMa-68" value="" style="endArrow=none;html=1;rounded=0;exitX=0;exitY=0.5;exitDx=0;exitDy=0;entryX=0.75;entryY=1;entryDx=0;entryDy=0;" edge="1" parent="1" source="CkRIOsrcOfZO_O2mwUMa-66" target="CkRIOsrcOfZO_O2mwUMa-81">
          <mxGeometry width="50" height="50" relative="1" as="geometry">
            <mxPoint x="390" y="707" as="sourcePoint" />
            <mxPoint x="355" y="727" as="targetPoint" />
            <Array as="points">
              <mxPoint x="537.5" y="797" />
            </Array>
          </mxGeometry>
        </mxCell>
        <mxCell id="CkRIOsrcOfZO_O2mwUMa-69" value="&lt;u&gt;name&lt;/u&gt;" style="ellipse;whiteSpace=wrap;html=1;align=center;" vertex="1" parent="1">
          <mxGeometry x="572.5" y="717" width="100" height="40" as="geometry" />
        </mxCell>
        <mxCell id="CkRIOsrcOfZO_O2mwUMa-70" value="" style="endArrow=none;html=1;rounded=0;exitX=0;exitY=0.5;exitDx=0;exitDy=0;entryX=1;entryY=0.5;entryDx=0;entryDy=0;" edge="1" parent="1" source="CkRIOsrcOfZO_O2mwUMa-69" target="CkRIOsrcOfZO_O2mwUMa-81">
          <mxGeometry width="50" height="50" relative="1" as="geometry">
            <mxPoint x="240" y="747" as="sourcePoint" />
            <mxPoint x="280" y="727" as="targetPoint" />
            <Array as="points" />
          </mxGeometry>
        </mxCell>
        <mxCell id="CkRIOsrcOfZO_O2mwUMa-71" value="&lt;u&gt;name&lt;/u&gt;" style="ellipse;whiteSpace=wrap;html=1;align=center;" vertex="1" parent="1">
          <mxGeometry x="352.5" y="900" width="100" height="40" as="geometry" />
        </mxCell>
        <mxCell id="CkRIOsrcOfZO_O2mwUMa-72" value="level" style="ellipse;whiteSpace=wrap;html=1;align=center;" vertex="1" parent="1">
          <mxGeometry x="572.5" y="900" width="100" height="40" as="geometry" />
        </mxCell>
        <mxCell id="CkRIOsrcOfZO_O2mwUMa-73" value="" style="endArrow=none;html=1;rounded=0;entryX=1;entryY=0.5;entryDx=0;entryDy=0;exitX=0;exitY=0.5;exitDx=0;exitDy=0;" edge="1" parent="1" source="CkRIOsrcOfZO_O2mwUMa-77" target="CkRIOsrcOfZO_O2mwUMa-71">
          <mxGeometry relative="1" as="geometry">
            <mxPoint x="462.5" y="910" as="sourcePoint" />
            <mxPoint x="672.5" y="880" as="targetPoint" />
            <Array as="points" />
          </mxGeometry>
        </mxCell>
        <mxCell id="CkRIOsrcOfZO_O2mwUMa-74" value="" style="endArrow=none;html=1;rounded=0;exitX=0;exitY=0.5;exitDx=0;exitDy=0;entryX=1;entryY=0.5;entryDx=0;entryDy=0;" edge="1" parent="1" source="CkRIOsrcOfZO_O2mwUMa-72" target="CkRIOsrcOfZO_O2mwUMa-77">
          <mxGeometry relative="1" as="geometry">
            <mxPoint x="512.5" y="880" as="sourcePoint" />
            <mxPoint x="562.5" y="910" as="targetPoint" />
            <Array as="points" />
          </mxGeometry>
        </mxCell>
        <mxCell id="CkRIOsrcOfZO_O2mwUMa-75" value="" style="endArrow=none;html=1;rounded=0;exitX=0.5;exitY=1;exitDx=0;exitDy=0;entryX=0.5;entryY=0;entryDx=0;entryDy=0;" edge="1" parent="1" target="CkRIOsrcOfZO_O2mwUMa-76">
          <mxGeometry relative="1" as="geometry">
            <mxPoint x="512.5" y="930" as="sourcePoint" />
            <mxPoint x="752.5" y="1020" as="targetPoint" />
          </mxGeometry>
        </mxCell>
        <mxCell id="CkRIOsrcOfZO_O2mwUMa-76" value="description" style="ellipse;whiteSpace=wrap;html=1;align=center;" vertex="1" parent="1">
          <mxGeometry x="462.5" y="947" width="100" height="40" as="geometry" />
        </mxCell>
        <mxCell id="CkRIOsrcOfZO_O2mwUMa-77" value="&lt;b&gt;Requirement&lt;/b&gt;" style="shape=ext;margin=3;double=1;whiteSpace=wrap;html=1;align=center;rounded=1;shadow=0;glass=0;strokeWidth=2;" vertex="1" parent="1">
          <mxGeometry x="462.5" y="900" width="100" height="40" as="geometry" />
        </mxCell>
        <mxCell id="CkRIOsrcOfZO_O2mwUMa-78" value="Requires" style="shape=rhombus;double=1;perimeter=rhombusPerimeter;whiteSpace=wrap;html=1;align=center;" vertex="1" parent="1">
          <mxGeometry x="452.5" y="800" width="120" height="60" as="geometry" />
        </mxCell>
        <mxCell id="CkRIOsrcOfZO_O2mwUMa-79" value="" style="endArrow=none;html=1;rounded=0;entryX=0.5;entryY=1;entryDx=0;entryDy=0;exitX=0.5;exitY=0;exitDx=0;exitDy=0;" edge="1" parent="1" source="CkRIOsrcOfZO_O2mwUMa-83" target="CkRIOsrcOfZO_O2mwUMa-81">
          <mxGeometry width="50" height="50" relative="1" as="geometry">
            <mxPoint x="300" y="860" as="sourcePoint" />
            <mxPoint x="350" y="810" as="targetPoint" />
          </mxGeometry>
        </mxCell>
        <mxCell id="CkRIOsrcOfZO_O2mwUMa-80" value="" style="endArrow=none;html=1;rounded=0;exitX=0.5;exitY=0;exitDx=0;exitDy=0;entryX=0.5;entryY=1;entryDx=0;entryDy=0;" edge="1" parent="1" source="CkRIOsrcOfZO_O2mwUMa-85" target="CkRIOsrcOfZO_O2mwUMa-78">
          <mxGeometry width="50" height="50" relative="1" as="geometry">
            <mxPoint x="475" y="860" as="sourcePoint" />
            <mxPoint x="525" y="810" as="targetPoint" />
          </mxGeometry>
        </mxCell>
        <mxCell id="CkRIOsrcOfZO_O2mwUMa-81" value="&lt;b&gt;Job offer&lt;/b&gt;" style="shape=ext;margin=3;double=1;whiteSpace=wrap;html=1;align=center;rounded=1;shadow=0;glass=0;strokeWidth=2;" vertex="1" parent="1">
          <mxGeometry x="462.5" y="717" width="100" height="40" as="geometry" />
        </mxCell>
        <mxCell id="CkRIOsrcOfZO_O2mwUMa-82" value="" style="endArrow=none;html=1;rounded=0;entryX=0.5;entryY=1;entryDx=0;entryDy=0;exitX=0.5;exitY=0;exitDx=0;exitDy=0;" edge="1" parent="1" source="CkRIOsrcOfZO_O2mwUMa-78" target="CkRIOsrcOfZO_O2mwUMa-83">
          <mxGeometry width="50" height="50" relative="1" as="geometry">
            <mxPoint x="505" y="800" as="sourcePoint" />
            <mxPoint x="505" y="762" as="targetPoint" />
          </mxGeometry>
        </mxCell>
        <mxCell id="CkRIOsrcOfZO_O2mwUMa-83" value="(0,n)" style="text;html=1;align=center;verticalAlign=middle;whiteSpace=wrap;rounded=0;" vertex="1" parent="1">
          <mxGeometry x="497.5" y="762" width="30" height="15" as="geometry" />
        </mxCell>
        <mxCell id="CkRIOsrcOfZO_O2mwUMa-84" value="" style="endArrow=none;html=1;rounded=0;exitX=0.5;exitY=0;exitDx=0;exitDy=0;entryX=0.5;entryY=1;entryDx=0;entryDy=0;" edge="1" parent="1" source="CkRIOsrcOfZO_O2mwUMa-77" target="CkRIOsrcOfZO_O2mwUMa-85">
          <mxGeometry width="50" height="50" relative="1" as="geometry">
            <mxPoint x="512.5" y="890" as="sourcePoint" />
            <mxPoint x="512.5" y="860" as="targetPoint" />
          </mxGeometry>
        </mxCell>
        <mxCell id="CkRIOsrcOfZO_O2mwUMa-85" value="(1,1)" style="text;html=1;align=center;verticalAlign=middle;whiteSpace=wrap;rounded=0;" vertex="1" parent="1">
          <mxGeometry x="502.5" y="877" width="20" height="20" as="geometry" />
        </mxCell>
        <mxCell id="CkRIOsrcOfZO_O2mwUMa-86" value="" style="endArrow=none;html=1;rounded=0;entryX=1;entryY=0.5;entryDx=0;entryDy=0;exitX=0;exitY=0.5;exitDx=0;exitDy=0;" edge="1" parent="1" source="CkRIOsrcOfZO_O2mwUMa-81" target="CkRIOsrcOfZO_O2mwUMa-87">
          <mxGeometry width="50" height="50" relative="1" as="geometry">
            <mxPoint x="462.5" y="737" as="sourcePoint" />
            <mxPoint x="25.5" y="572" as="targetPoint" />
            <Array as="points" />
          </mxGeometry>
        </mxCell>
        <mxCell id="CkRIOsrcOfZO_O2mwUMa-87" value="(0,n)" style="text;html=1;align=center;verticalAlign=middle;whiteSpace=wrap;rounded=0;" vertex="1" parent="1">
          <mxGeometry x="412.5" y="727" width="30" height="20" as="geometry" />
        </mxCell>
        <mxCell id="CkRIOsrcOfZO_O2mwUMa-88" value="Job contract" style="shape=rhombus;double=1;perimeter=rhombusPerimeter;whiteSpace=wrap;html=1;align=center;" vertex="1" parent="1">
          <mxGeometry x="302.5" y="528" width="120" height="60" as="geometry" />
        </mxCell>
        <mxCell id="CkRIOsrcOfZO_O2mwUMa-89" value="" style="endArrow=none;html=1;rounded=0;entryX=0.25;entryY=1;entryDx=0;entryDy=0;exitX=0.5;exitY=0;exitDx=0;exitDy=0;" edge="1" parent="1" source="CkRIOsrcOfZO_O2mwUMa-100" target="elTZjFrcNAr7ZUx7Urip-51">
          <mxGeometry width="50" height="50" relative="1" as="geometry">
            <mxPoint x="523" y="538" as="sourcePoint" />
            <mxPoint x="468" y="493" as="targetPoint" />
          </mxGeometry>
        </mxCell>
        <mxCell id="CkRIOsrcOfZO_O2mwUMa-90" value="" style="endArrow=none;html=1;rounded=0;entryX=0.5;entryY=1;entryDx=0;entryDy=0;exitX=0.5;exitY=0;exitDx=0;exitDy=0;" edge="1" parent="1" source="CkRIOsrcOfZO_O2mwUMa-102" target="CkRIOsrcOfZO_O2mwUMa-88">
          <mxGeometry width="50" height="50" relative="1" as="geometry">
            <mxPoint x="323" y="680" as="sourcePoint" />
            <mxPoint x="308" y="640" as="targetPoint" />
            <Array as="points" />
          </mxGeometry>
        </mxCell>
        <mxCell id="CkRIOsrcOfZO_O2mwUMa-95" value="" style="endArrow=none;html=1;rounded=0;exitX=0.25;exitY=1;exitDx=0;exitDy=0;entryX=1;entryY=0;entryDx=0;entryDy=0;" edge="1" parent="1" source="elTZjFrcNAr7ZUx7Urip-50" target="CkRIOsrcOfZO_O2mwUMa-94">
          <mxGeometry width="50" height="50" relative="1" as="geometry">
            <mxPoint x="248" y="483" as="sourcePoint" />
            <mxPoint x="135" y="545" as="targetPoint" />
            <Array as="points" />
          </mxGeometry>
        </mxCell>
        <mxCell id="CkRIOsrcOfZO_O2mwUMa-94" value="(0,1)" style="text;html=1;align=center;verticalAlign=middle;whiteSpace=wrap;rounded=0;" vertex="1" parent="1">
          <mxGeometry x="199.5" y="490" width="31" height="20" as="geometry" />
        </mxCell>
        <mxCell id="CkRIOsrcOfZO_O2mwUMa-97" value="" style="endArrow=none;html=1;rounded=0;entryX=0.5;entryY=1;entryDx=0;entryDy=0;exitX=0.5;exitY=0;exitDx=0;exitDy=0;" edge="1" parent="1" source="elTZjFrcNAr7ZUx7Urip-82" target="CkRIOsrcOfZO_O2mwUMa-96">
          <mxGeometry width="50" height="50" relative="1" as="geometry">
            <mxPoint x="291" y="570" as="sourcePoint" />
            <mxPoint x="298" y="483" as="targetPoint" />
          </mxGeometry>
        </mxCell>
        <mxCell id="CkRIOsrcOfZO_O2mwUMa-96" value="(0,n)" style="text;html=1;align=center;verticalAlign=middle;whiteSpace=wrap;rounded=0;" vertex="1" parent="1">
          <mxGeometry x="279" y="490" width="31" height="20" as="geometry" />
        </mxCell>
        <mxCell id="CkRIOsrcOfZO_O2mwUMa-99" value="" style="endArrow=none;html=1;rounded=0;entryX=0.75;entryY=1;entryDx=0;entryDy=0;exitX=0.5;exitY=0;exitDx=0;exitDy=0;" edge="1" parent="1" source="CkRIOsrcOfZO_O2mwUMa-62" target="CkRIOsrcOfZO_O2mwUMa-98">
          <mxGeometry width="50" height="50" relative="1" as="geometry">
            <mxPoint x="513" y="528" as="sourcePoint" />
            <mxPoint x="458" y="483" as="targetPoint" />
          </mxGeometry>
        </mxCell>
        <mxCell id="CkRIOsrcOfZO_O2mwUMa-98" value="(0,n)" style="text;html=1;align=center;verticalAlign=middle;whiteSpace=wrap;rounded=0;" vertex="1" parent="1">
          <mxGeometry x="460" y="492.5" width="30" height="15" as="geometry" />
        </mxCell>
        <mxCell id="CkRIOsrcOfZO_O2mwUMa-101" value="" style="endArrow=none;html=1;rounded=0;entryX=0.25;entryY=1;entryDx=0;entryDy=0;exitX=0.5;exitY=0;exitDx=0;exitDy=0;" edge="1" parent="1" source="CkRIOsrcOfZO_O2mwUMa-88" target="CkRIOsrcOfZO_O2mwUMa-100">
          <mxGeometry width="50" height="50" relative="1" as="geometry">
            <mxPoint x="363" y="528" as="sourcePoint" />
            <mxPoint x="408" y="483" as="targetPoint" />
          </mxGeometry>
        </mxCell>
        <mxCell id="CkRIOsrcOfZO_O2mwUMa-100" value="(0,n)" style="text;html=1;align=center;verticalAlign=middle;whiteSpace=wrap;rounded=0;" vertex="1" parent="1">
          <mxGeometry x="382.5" y="492.5" width="30" height="15" as="geometry" />
        </mxCell>
        <mxCell id="CkRIOsrcOfZO_O2mwUMa-103" value="" style="endArrow=none;html=1;rounded=0;entryX=0.5;entryY=1;entryDx=0;entryDy=0;exitX=0.5;exitY=0;exitDx=0;exitDy=0;" edge="1" parent="1" source="elTZjFrcNAr7ZUx7Urip-80" target="CkRIOsrcOfZO_O2mwUMa-102">
          <mxGeometry width="50" height="50" relative="1" as="geometry">
            <mxPoint x="363" y="670" as="sourcePoint" />
            <mxPoint x="363" y="588" as="targetPoint" />
            <Array as="points" />
          </mxGeometry>
        </mxCell>
        <mxCell id="CkRIOsrcOfZO_O2mwUMa-102" value="(1,1)" style="text;html=1;align=center;verticalAlign=middle;whiteSpace=wrap;rounded=0;" vertex="1" parent="1">
          <mxGeometry x="347.5" y="640" width="30" height="15" as="geometry" />
        </mxCell>
        <mxCell id="CkRIOsrcOfZO_O2mwUMa-105" value="" style="endArrow=none;html=1;rounded=0;entryX=0.5;entryY=0;entryDx=0;entryDy=0;exitX=0.5;exitY=1;exitDx=0;exitDy=0;" edge="1" parent="1" source="CkRIOsrcOfZO_O2mwUMa-62" target="CkRIOsrcOfZO_O2mwUMa-104">
          <mxGeometry width="50" height="50" relative="1" as="geometry">
            <mxPoint x="513" y="588" as="sourcePoint" />
            <mxPoint x="513" y="717" as="targetPoint" />
            <Array as="points" />
          </mxGeometry>
        </mxCell>
        <mxCell id="CkRIOsrcOfZO_O2mwUMa-104" value="(1,1)" style="text;html=1;align=center;verticalAlign=middle;whiteSpace=wrap;rounded=0;" vertex="1" parent="1">
          <mxGeometry x="497.5" y="695" width="30" height="15" as="geometry" />
        </mxCell>
        <mxCell id="CkRIOsrcOfZO_O2mwUMa-106" value="Profile expertise" style="shape=rhombus;perimeter=rhombusPerimeter;whiteSpace=wrap;html=1;align=center;" vertex="1" parent="1">
          <mxGeometry x="170" y="295" width="120" height="60" as="geometry" />
        </mxCell>
        <mxCell id="CkRIOsrcOfZO_O2mwUMa-107" value="" style="endArrow=none;html=1;rounded=0;entryX=0;entryY=0.5;entryDx=0;entryDy=0;" edge="1" parent="1" source="CkRIOsrcOfZO_O2mwUMa-113" target="CkRIOsrcOfZO_O2mwUMa-106">
          <mxGeometry width="50" height="50" relative="1" as="geometry">
            <mxPoint x="65" y="387" as="sourcePoint" />
            <mxPoint x="-115" y="353" as="targetPoint" />
          </mxGeometry>
        </mxCell>
        <mxCell id="CkRIOsrcOfZO_O2mwUMa-108" value="&lt;b&gt;Expertise&lt;/b&gt;" style="rounded=1;arcSize=10;whiteSpace=wrap;html=1;align=center;strokeWidth=2;" vertex="1" parent="1">
          <mxGeometry x="22.5" y="306" width="100" height="40" as="geometry" />
        </mxCell>
        <mxCell id="CkRIOsrcOfZO_O2mwUMa-109" value="title" style="ellipse;whiteSpace=wrap;html=1;align=center;fontStyle=4;strokeWidth=1;" vertex="1" parent="1">
          <mxGeometry x="22.5" y="258" width="100" height="40" as="geometry" />
        </mxCell>
        <mxCell id="CkRIOsrcOfZO_O2mwUMa-110" value="" style="endArrow=none;html=1;rounded=0;exitX=0.5;exitY=0;exitDx=0;exitDy=0;entryX=0.5;entryY=1;entryDx=0;entryDy=0;" edge="1" parent="1" source="CkRIOsrcOfZO_O2mwUMa-108" target="CkRIOsrcOfZO_O2mwUMa-109">
          <mxGeometry width="50" height="50" relative="1" as="geometry">
            <mxPoint x="-175" y="400" as="sourcePoint" />
            <mxPoint x="-125" y="350" as="targetPoint" />
          </mxGeometry>
        </mxCell>
        <mxCell id="CkRIOsrcOfZO_O2mwUMa-111" value="" style="endArrow=none;html=1;rounded=0;exitX=1;exitY=0.25;exitDx=0;exitDy=0;entryX=0;entryY=1;entryDx=0;entryDy=0;" edge="1" parent="1" source="CkRIOsrcOfZO_O2mwUMa-115" target="CkRIOsrcOfZO_O2mwUMa-38">
          <mxGeometry width="50" height="50" relative="1" as="geometry">
            <mxPoint x="244" y="357" as="sourcePoint" />
            <mxPoint x="328" y="278" as="targetPoint" />
            <Array as="points" />
          </mxGeometry>
        </mxCell>
        <mxCell id="CkRIOsrcOfZO_O2mwUMa-112" value="" style="endArrow=none;html=1;rounded=0;entryX=0;entryY=0.5;entryDx=0;entryDy=0;exitX=1;exitY=0.5;exitDx=0;exitDy=0;" edge="1" parent="1" source="CkRIOsrcOfZO_O2mwUMa-108" target="CkRIOsrcOfZO_O2mwUMa-113">
          <mxGeometry width="50" height="50" relative="1" as="geometry">
            <mxPoint x="65" y="387" as="sourcePoint" />
            <mxPoint x="184" y="387" as="targetPoint" />
          </mxGeometry>
        </mxCell>
        <mxCell id="CkRIOsrcOfZO_O2mwUMa-113" value="(0,n)" style="text;html=1;align=center;verticalAlign=middle;whiteSpace=wrap;rounded=0;" vertex="1" parent="1">
          <mxGeometry x="130" y="316" width="30" height="20" as="geometry" />
        </mxCell>
        <mxCell id="CkRIOsrcOfZO_O2mwUMa-114" value="" style="endArrow=none;html=1;rounded=0;exitX=1;exitY=0;exitDx=0;exitDy=0;entryX=0;entryY=1;entryDx=0;entryDy=0;" edge="1" parent="1" source="CkRIOsrcOfZO_O2mwUMa-106" target="CkRIOsrcOfZO_O2mwUMa-115">
          <mxGeometry width="50" height="50" relative="1" as="geometry">
            <mxPoint x="275" y="372" as="sourcePoint" />
            <mxPoint x="328" y="278" as="targetPoint" />
            <Array as="points" />
          </mxGeometry>
        </mxCell>
        <mxCell id="CkRIOsrcOfZO_O2mwUMa-115" value="(0,n)" style="text;html=1;align=center;verticalAlign=middle;whiteSpace=wrap;rounded=0;" vertex="1" parent="1">
          <mxGeometry x="267" y="280" width="25.5" height="22" as="geometry" />
        </mxCell>
      </root>
    </mxGraphModel>
  </diagram>
</mxfile>
